<svg version="1.2" baseProfile="tiny-ps" xmlns="http://www.w3.org/2000/svg" viewBox="0 0 512 512" width="512" height="512">
	<title>shield-svg</title>
	<style>
		tspan { white-space:pre }
		.shp0 { fill: #0071bc } 
		.shp1 { fill: #29abe2 } 
		.shp2 { fill: #e6e6e6 } 
		.shp3 { fill: #30c78d } 
	</style>
	<path id="Layer" class="shp0" d="M355.54 460.96L257.5 509.98L159.46 460.96C94.83 428.64 54 362.58 54 290.31L54 64.82L257.5 1.23L461 64.82L461 290.31C461 362.58 420.17 428.64 355.54 460.96Z" />
	<path id="Layer" class="shp1" d="M257.5 52.1L104.87 102.98L104.87 242.88L257.5 242.88L257.5 52.1Z" />
	<path id="Layer" class="shp2" d="M410.13 242.88L410.13 102.98L257.5 52.1L257.5 242.88L410.13 242.88Z" />
	<path id="Layer" class="shp1" d="M257.5 242.88L257.5 446.38L339.82 405.23C382.91 383.68 410.13 339.65 410.13 291.47L410.13 242.88L257.5 242.88L257.5 242.88Z" />
	<path id="Layer" class="shp2" d="M104.87 242.88L104.87 291.47C104.87 339.65 132.09 383.68 175.18 405.23L257.5 446.38L257.5 242.88L104.87 242.88L104.87 242.88Z" />
	<path id="Layer" class="shp3" d="M128.49 1.7C127.37 0.6 125.86 -0.01 124.29 0L124.29 0C122.71 0 121.2 0.63 120.08 1.75L1.69 120.5C-0.6 122.85 -0.56 126.61 1.79 128.89C2.89 129.96 4.36 130.57 5.89 130.58L71.18 130.58L71.18 278.96C71.18 282.24 73.83 284.9 77.11 284.9L172.08 284.9C175.36 284.9 178.01 282.24 178.01 278.96L178.01 130.58L243.05 130.58C246.33 130.58 248.99 127.93 249 124.65C249 123.07 248.38 121.56 247.26 120.44L128.49 1.7Z" />
	<g id="Layer">
	</g>
	<g id="Layer">
	</g>
	<g id="Layer">
	</g>
	<g id="Layer">
	</g>
	<g id="Layer">
	</g>
	<g id="Layer">
	</g>
	<g id="Layer">
	</g>
	<g id="Layer">
	</g>
	<g id="Layer">
	</g>
	<g id="Layer">
	</g>
	<g id="Layer">
	</g>
	<g id="Layer">
	</g>
	<g id="Layer">
	</g>
	<g id="Layer">
	</g>
	<g id="Layer">
	</g>
	<g id="Layer">
	</g>
</svg>