<svg version="1.2" baseProfile="tiny-ps" xmlns="http://www.w3.org/2000/svg" viewBox="0 0 280 280" width="280" height="280">
	<title>hitpoints-svg</title>
	<style>
		tspan { white-space:pre }
		.shp0 { fill: #e2574c } 
		.shp1 { fill: #cb4e44 } 
		.shp2 { fill: #30c78d } 
	</style>
	<g id="Layer">
		<path id="Layer" class="shp0" d="M255.36 41.84C213.92 0.39 172.82 18.5 139.93 48.07C107.02 18.5 66.26 0.06 24.49 41.84C-8.08 74.39 -8.24 126.7 24.49 159.08C139.57 262.61 139.54 262.42 139.54 262.42C139.54 262.42 139.71 262.76 255.35 159.08C288.1 126.7 287.93 74.39 255.36 41.84Z" />
		<path id="Layer" class="shp1" d="M139.92 48.06L139.84 48L139.84 262.17C141.69 260.61 155.26 248.82 255.35 159.07C288.09 126.7 287.93 74.39 255.35 41.84C213.91 0.39 172.82 18.5 139.92 48.06Z" />
	</g>
	<g id="Layer">
	</g>
	<g id="Layer">
	</g>
	<g id="Layer">
	</g>
	<g id="Layer">
	</g>
	<g id="Layer">
	</g>
	<g id="Layer">
	</g>
	<g id="Layer">
	</g>
	<g id="Layer">
	</g>
	<g id="Layer">
	</g>
	<g id="Layer">
	</g>
	<g id="Layer">
	</g>
	<g id="Layer">
	</g>
	<g id="Layer">
	</g>
	<g id="Layer">
	</g>
	<g id="Layer">
	</g>
	<path id="Layer" class="shp2" d="M137.22 53.69C135.36 51.84 133.1 50.91 130.45 50.91L89.09 50.91L89.09 9.54C89.09 6.89 88.16 4.64 86.31 2.78C84.45 0.93 82.2 0 79.54 0L60.45 0C57.8 0 55.55 0.93 53.69 2.78C51.84 4.64 50.91 6.89 50.91 9.54L50.91 50.91L9.54 50.91C6.89 50.91 4.64 51.84 2.78 53.69C0.93 55.55 0 57.8 0 60.45L0 79.55C0 82.2 0.93 84.45 2.78 86.31C4.64 88.16 6.89 89.09 9.54 89.09L50.91 89.09L50.91 130.46C50.91 133.11 51.84 135.36 53.69 137.22C55.55 139.07 57.8 140 60.45 140L79.54 140C82.2 140 84.45 139.07 86.31 137.22C88.16 135.36 89.09 133.11 89.09 130.46L89.09 89.09L130.45 89.09C133.11 89.09 135.36 88.16 137.22 86.31C139.07 84.45 140 82.2 140 79.55L140 60.45C140 57.8 139.07 55.55 137.22 53.69Z" />
</svg>